/* XPM */
static char *c93e4c223967417f890dd31d108a43e8R1iHMSBQYb1Ng9aE[] = {
/* columns rows colors chars-per-pixel */
"64 64 155 2 ",
"   c #F6A51F",
".  c #F5AB1E",
"X  c #F5B21F",
"o  c #F7A422",
"O  c #F8A523",
"+  c #F6AB22",
"@  c #F8A923",
"#  c #FAA328",
"$  c #F6B423",
"%  c #F9B324",
"&  c #F6BB24",
"*  c #F8BA24",
"=  c #FCD717",
"-  c #F8DB17",
";  c #FCD71E",
":  c #F6DA1D",
">  c #F9D91C",
",  c #F6C225",
"<  c #F9C326",
"1  c #F6CB25",
"2  c #F8CB26",
"3  c #F7C428",
"4  c #F8C429",
"5  c #F9CD29",
"6  c #F7D226",
"7  c #F9D527",
"8  c #F6DC25",
"9  c #F9DC25",
"0  c #F7D52A",
"q  c #FAD52A",
"w  c #F7DD29",
"e  c #F9DC29",
"r  c #F5DD35",
"t  c #F8DD34",
"y  c #F5DF3C",
"u  c #F7E027",
"i  c #F8E026",
"p  c #F7E029",
"a  c #F9E02A",
"s  c #F8E02B",
"d  c #FAE029",
"f  c #F9E029",
"g  c #F5DE43",
"h  c #F4DF40",
"j  c #F5DF4B",
"k  c #F4E146",
"l  c #F5E14C",
"z  c #FAE14B",
"x  c #FAE04E",
"c  c #F6E252",
"v  c #F5E254",
"b  c #F8E251",
"n  c #F5E45E",
"m  c #F6E362",
"M  c #F6E464",
"N  c #F5E561",
"B  c #F6E66E",
"V  c #F7E675",
"C  c #F8E775",
"Z  c #F6E974",
"A  c #F5E877",
"S  c #F6E974",
"D  c #F7E67A",
"F  c #F3E97B",
"G  c #F6E979",
"H  c #F6E97B",
"J  c #F7E97B",
"K  c #F7E97C",
"L  c #F6E87E",
"P  c #F5E97B",
"I  c #F8E97E",
"U  c #F7E981",
"Y  c #F7EB84",
"T  c #F7EB8A",
"R  c #F6EC89",
"E  c #F7EC8F",
"W  c #F7EB8A",
"Q  c #F8EC8F",
"!  c #F8EE94",
"~  c #F8EC97",
"^  c #F6EE9C",
"/  c #F8EE9D",
"(  c #F7F09D",
")  c #F9EFA6",
"_  c #F9EFA4",
"`  c #F6F0A0",
"'  c #F7F0A5",
"]  c #F7F1A7",
"[  c #F7F1A6",
"{  c #F7F2AB",
"}  c #F7F2AB",
"|  c #F8F3AB",
" . c #F9F3B1",
".. c #F8F3B2",
"X. c #F9F3B5",
"o. c #F9F2B4",
"O. c #FAF1B8",
"+. c #FBF4BB",
"@. c #F8F4B8",
"#. c #F9F3B9",
"$. c #F9F4C1",
"%. c #FBF5C7",
"&. c #FBF6C7",
"*. c #FAF5C5",
"=. c #FBF5C9",
"-. c #FAF5CA",
";. c #FAF6CA",
":. c #FAF6C9",
">. c #FCF7D7",
",. c #FAF9D4",
"<. c #FBF9D8",
"1. c #FBF9E0",
"2. c #FBF9E1",
"3. c #FBFBE3",
"4. c #FCF8E5",
"5. c #FAFCE7",
"6. c #FCFAE3",
"7. c #FAFBE8",
"8. c #FCFCEB",
"9. c #FDFEF5",
"0. c #FCFFF8",
"q. c #FFFEF9",
"w. c #FDFEFA",
"e. c #FDFFFA",
"r. c #FCFEFB",
"t. c #FDFEFB",
"y. c #FEFEFA",
"u. c #FFFEFA",
"i. c #FEFFFA",
"p. c #FFFFFA",
"a. c #FEFEFB",
"s. c #FFFFFB",
"d. c #FAFFFF",
"f. c #FBFFFF",
"g. c #FEFDFC",
"h. c #FDFEFC",
"j. c #FCFFFC",
"k. c #FDFFFD",
"l. c #FFFEFC",
"z. c #FEFFFC",
"x. c #FFFFFC",
"c. c #FEFEFD",
"v. c #FFFEFD",
"b. c #FEFFFD",
"n. c #FFFFFD",
"m. c #FDFEFE",
"M. c #FDFFFE",
"N. c #FCFFFF",
"B. c #FDFFFF",
"V. c #FEFEFE",
"C. c #FFFFFE",
"Z. c #FFFEFF",
"A. c #FEFFFF",
"S. c #FFFFFFFF",
"D. c #FFFFFF",
/* pixels */
"S.S.S.S.S.S.S.S.S.S.S.S.S.S.S.S.S.S.S.S.S.S.S.S.S.S.S.S.S.S.S.S.S.S.S.S.S.S.S.S.S.S.S.S.S.S.S.S.S.S.S.S.S.S.S.S.S.S.S.S.S.S.S.S.",
"S.S.S.S.S.S.S.S.S.S.S.S.S.S.S.S.S.S.S.S.S.S.S.S.S.S.S.S.S.S.S.S.S.S.S.S.S.S.S.S.S.S.S.S.S.S.S.S.S.S.S.S.S.S.S.S.S.S.S.S.S.S.S.S.",
"S.S.S.S.S.S.S.S.S.S.S.S.S.S.S.S.S.S.S.S.S.S.S.S.S.S.S.S.S.S.S.S.S.S.S.S.S.S.S.S.S.S.S.S.S.S.S.S.S.S.S.S.S.S.S.S.S.S.S.S.S.S.S.S.",
"S.S.S.S.S.S.S.S.S.S.S.S.S.S.S.S.S.S.S.S.S.S.S.S.S.S.S.S.S.S.S.S.S.S.S.S.S.S.S.S.S.S.S.S.S.S.S.S.S.S.S.S.S.S.S.S.S.S.S.S.S.S.S.S.",
"S.S.S.S.S.S.S.S.S.S.S.S.S.S.S.S.S.S.S.S.S.S.S.S.S.S.S.S.S.s.S.s.s.s.S.S.S.S.S.S.S.S.S.S.S.S.S.S.S.S.S.S.S.S.S.S.S.S.S.S.S.S.S.S.",
"S.S.S.S.S.S.S.S.S.S.S.S.S.S.S.S.S.S.S.S.S.S.s.s.s.s.S.S.m.S.S.S.m.S.S.S.S.S.s.s.S.S.S.S.S.S.S.S.S.S.S.S.S.S.S.S.S.S.S.S.S.S.S.S.",
"S.S.S.S.S.S.S.S.S.S.S.S.S.S.S.S.S.S.S.S.S.s.s.S.S.m.w.1.:.X.) ^ ` ' X.:.<.s.S.S.m.w.s.S.S.S.S.S.S.S.S.S.S.S.S.S.S.S.S.S.S.S.S.S.",
"S.S.S.S.S.S.S.S.S.S.S.S.S.S.S.S.S.S.S.S.w.S.S.3...G c r 8 : > > > : ; w r l D ..1.m.m.S.S.S.S.S.S.S.S.S.S.S.S.S.S.S.S.S.S.S.S.S.",
"S.S.S.S.S.S.S.S.S.S.S.S.S.S.S.S.S.s.S.S.m.-.S y : > : 9 e e e e e e e 9 e 8 - > r V %.S.S.s.s.S.S.S.S.S.S.S.S.S.S.S.S.S.S.S.S.S.",
"S.S.S.S.S.S.S.S.S.S.S.S.S.S.S.S.S.S.S.*.N 8 7 9 e e e e w e e 9 w w e e e e e e 9 > 8 m $.S.m.w.S.S.S.S.S.S.S.S.S.S.S.S.S.S.S.S.",
"S.S.S.S.S.S.S.S.S.S.S.S.S.S.S.s.S.7.D 9 : e e e f e 6 1 4 * $ $ $ $ & , 2 6 e 9 e e 9 > 8 C 4.S.s.S.S.S.S.S.S.S.S.S.S.S.S.S.S.S.",
"S.S.S.S.S.S.S.S.S.S.S.S.S.S.s.S.+.g : 9 w w e q < $ o o # O # # O # O o   + $ 4 q f w e 8 > y +.m.w.w.S.S.S.S.S.S.S.S.S.S.S.S.S.",
"S.S.S.S.S.S.S.S.S.S.S.m.w.m.m.! 9 9 e w u 6 * @ o O o O O @ @ O O O O O O O     O * 6 a e w 9 8 E m.m.S.S.S.S.S.S.S.S.S.S.S.S.S.",
"S.S.S.S.S.S.S.S.S.S.S.s.w.s.U : e w e e , O o O O O O O O O o O O O O O O + O O O o O * e i e 9 : D s.S.S.S.S.S.S.S.S.S.S.S.S.S.",
"S.S.S.S.S.S.S.S.S.S.s.S.S.D : e w f 6 @ o O O O O O O O O O O O O O O O O O O O O @ o # . 6 f 8 e > F s.m.m.S.S.S.S.S.S.S.S.S.S.",
"S.S.S.S.S.S.S.S.S.s.S.m.R : e 8 e 3 @ O O O O O O O O O O O O o O O O O O O O O @ o o O # O 1 e w w : Y m.w.S.S.S.S.S.S.S.S.S.S.",
"S.S.S.S.S.S.S.S.S.S.S.} 8 9 w 9 4 O   O O O O O o O O O O O o o O O o o O o O O O O O O o o o 1 8 w e > ' S.w.S.S.S.S.S.S.S.S.S.",
"S.S.S.S.S.S.S.S.m.S.<.r 9 8 8 1 O O + O O O O O O O O O o @ @ + @ @ O o O O O O O O O O o   o   3 f 9 9 r ,.S.s.S.S.S.S.S.S.S.S.",
"S.S.S.S.S.S.S.S.S.m.N ; e e 5 O   O O O O O O O O O o @ O + 0 e e 6 o o O O O O O O O O O O O O o 6 e e > n s.w.s.S.S.S.S.S.S.S.",
"S.S.S.S.S.S.S.g.S.} : 9 w q . O O O O O O O O O O o o @ # O 0 w e q o # O O o @ O O O O O O o O o + q e e 8 ` S.w.S.S.S.S.S.S.S.",
"S.S.S.S.S.S.s.S.9.j > e e $ o + O O O O O O O O O O # # o + q e e q , & % O @ O O O O O O O O O O O * 9 e 9 g 8.m.S.S.S.S.S.S.S.",
"S.S.S.S.S.S.r.S.) > e e 5 o O O O O O O O O O O O O o O < q e 8 e e i 9 9 7 & @ O O O O O o O O o o o 5 e e > ) m.s.S.S.S.S.S.S.",
"S.S.S.S.S.S.S.9.v 8 w e % o O O O O O O O O O O o o $ q 9 f e 9 e 8 8 e e d 2 o @ O O O O @ O O o O o % e w 8 b w.S.S.S.S.S.S.S.",
"S.S.S.S.S.s.S.*.w 9 e 5 O O O O O O O O O O + O @ + e 8 9 w 9 9 9 u e e 9 e % o O O O O O O O O O O O o 5 w 9 e %.S.S.S.S.S.S.S.",
"S.S.S.S.S.s.S.Y > 9 e * o O O O O O O O O O O O o 5 9 w e w e 6 1 1 1 6 w e + o @ O o O O O O O O O O O * a 9 > Y S.s.S.S.S.S.S.",
"S.S.S.S.S.m.9.v 8 8 e + O O O O O O O + O O O O . e e e e e & O O O @ O $ * @ O O O O O O O O O O o o @ + q e 9 c w.S.S.S.S.S.S.",
"S.S.S.S.S.S.<.r 9 i 2 o O O O O O O O O O O o o $ e 9 e e 6 o O O O O O o O O O O o O O O O O O O O O O   1 9 e r <.m.S.S.S.S.S.",
"S.S.S.S.S.S.@.8 e e & o O O O O O O O O O o o o * e 9 e w 7 @ o O O O O O O o O O O O O O O @ o O O O O o , e e 8 +.m.s.S.S.S.S.",
"S.S.S.S.s.S.^ > w e $ O O O O O O O O O O + + o $ e w 9 9 f 5 + o o o O o O O O o O O O O O O O O O O O O $ e e : ^ m.s.S.S.S.S.",
"S.S.S.S.m.S.Y > e 8 + o O O o @ O O O O O O O O O 6 u 9 e e e 9 2 $ O O O O O O @ @ O O O O O O O O O O o $ e e : Y m.s.S.S.S.S.",
"S.S.S.S.S.S.V > s 9 + o O O O @ O O O O O O O   O $ e 8 e e 9 e e e q <   o O O O O O O O O O O O O O O O @ w e ; D S.s.S.S.S.S.",
"S.S.S.S.S.S.M : w w @ O O O O O O O O O O O O O O o & w e 9 e w e e 9 e 7 % o O @ O O O O O O O O O O O @ @ q e > B m.s.S.S.S.S.",
"S.S.S.S.S.S.B > e 9 @ o O O O O O O O O O O O O O O o + 6 e e 9 9 e e e e e $ o o # o O O O O O O O O O o @ 0 t > V S.s.S.S.S.S.",
"S.S.S.S.S.S.V > w 9 @ o O o O O O O O O O O O O O O O o O % 2 e e e 9 e 9 9 0 @ o o o O O O O O O O O O @ + e e > V S.g.S.S.S.S.",
"S.S.S.S.s.S.U > w e $ o O O O O O O O O O O O O O O O @ O o o + & 7 9 e e e u & O o O O O O O O O O O O O + e e > U S.s.S.S.S.S.",
"S.S.S.S.s.S.^ : e w $ o O O O O O O O + O O O O O O O O O O O O O + q e w e e 5 o O O O O O O O O O O @ O * e e : ^ S.S.S.S.S.S.",
"S.S.S.S.S.S.+.8 e i , o O O O O O O O O O O O O O O O O O O O O o # * e 8 e e 5 o O O O O O O O O O O O o < f 9 8 X.S.g.S.S.S.S.",
"S.S.S.S.S.S.>.r e e 2 o O O O O O O O O O O O O O O o O O O + O O o & e w e 9 2 o o O O O O O O O O O O o 2 e 9 r >.S.s.S.S.S.S.",
"S.S.S.S.S.S.s.v 8 e q + o O O O o o O O O O o @   4 1 + O O O o   + q e e e f , # o O O @ o O O O O O o . q e 9 c g.S.g.S.S.S.S.",
"S.S.S.S.S.s.S.Y > e f % O O O O O @ + O O O O O @ q f e 6 2 1 2 5 e w e w e e + O O O O O O O O O O @ o & e e > R S.9.m.S.S.S.S.",
"S.S.S.S.S.S.m.$.w 8 e 5 O O o O O O O @ o O @ # $ 9 9 9 e f e e f e e 9 9 f , o O O O O O O O o O O O O 5 e w 8 $.S.s.S.S.S.S.S.",
"S.S.S.S.S.m.s.w.v : e e $ O @ O O O O O O O o o 4 f e e 9 e e e e 9 9 u e & o O O O O O O O O @ O O O % e 8 8 v 9.S.S.S.S.S.S.S.",
"S.S.S.S.S.S.s.S.) > e 9 5 @ o o O O O O o o o # % 2 q e e f 8 9 9 w q 1 + # O O O O O O O O o O O O O 5 u e : ' S.S.S.S.S.S.S.S.",
"S.S.S.S.S.S.S.S.9.l : w e * # o O O O O o o o o o o @ % * & e 9 9 0 X o O O O O O O O O O O O o @ o * e e 9 k 8.S.S.S.S.S.S.S.S.",
"S.S.S.S.S.S.S.s.S.} > e e q . O O @ O O O O O O O O     # O 0 e e q @ O o O O O O O O O O O @ o o + 0 e 8 8 ' S.s.S.S.S.S.S.S.S.",
"S.S.S.S.S.S.S.S.S.s.n : e e 2 O O   O O O O O O O O O O o + q e e 6 O O O O O O O O O O o @ O o o 5 w e > n 9.m.S.S.S.S.S.S.S.S.",
"S.S.S.S.S.S.S.S.S.S.>.r 9 e f 2   O   O O O O O O O O O o   @ @ @ @ @ O O O O O @ O O O O @ # o 1 e w 9 r ,.S.s.S.S.S.S.S.S.S.S.",
"S.S.S.S.S.S.S.S.s.s.S.] 8 e 9 e <   O O O O O O O O O O O O # O O O o O O o O O o O O O O O o 4 9 w e 8 ' S.g.S.S.S.S.S.S.S.S.S.",
"S.S.S.S.S.S.S.S.S.s.s.m.R > e w 9 1 @ @ @ o o o O O O O O O O O O O O O O o O O O O O O @ O 2 9 8 e : R S.w.S.S.S.S.S.S.S.S.S.S.",
"S.S.S.S.S.S.S.S.S.S.S.S.m.L > e e e 5 + o # @ @ O O O O O O O O O O O O O # o O O O O O + 5 9 8 e ; D m.S.9.S.S.S.S.S.S.S.S.S.S.",
"S.S.S.S.S.S.S.S.S.S.S.w.m.s.U : e e w e &   O o # o o O O O O o O O O O O o O O O O O * w w w 9 > F S.s.s.S.S.S.S.S.S.S.S.S.S.S.",
"S.S.S.S.S.S.S.S.S.S.S.S.s.S.S.~ 8 9 w 8 w 0 * + o o O # O O O O @ O O O # O O O @ * 6 9 e e 8 8 E S.m.m.S.S.S.S.S.S.S.S.S.S.S.S.",
"S.S.S.S.S.S.S.S.S.S.S.S.S.S.g.m.@.k - 9 e 9 9 0 , % @ o o o o O o O o O o O $ 1 q e u w 9 > y @.S.w.9.S.S.S.S.S.S.S.S.S.S.S.S.S.",
"S.S.S.S.S.S.S.S.S.S.S.S.S.S.s.w.m.4.V w > e w e e e 7 2 < % * % $ % * * 2 7 e f e e 9 8 8 D 1.S.s.s.S.S.S.S.S.S.S.S.S.S.S.S.S.S.",
"S.S.S.S.S.S.S.S.S.S.S.S.S.S.S.S.s.m.S.%.M w > 9 e 9 e e e e e e e e e f e e w 9 8 > 9 n $.S.S.S.S.S.m.S.S.S.S.S.S.S.S.S.S.S.S.S.",
"S.S.S.S.S.S.S.S.S.S.S.S.S.S.S.S.S.S.m.m.S.:.S y 8 > > 9 9 e e e e e e e 9 8 : > t V -.S.m.w.S.S.S.S.S.S.S.S.S.S.S.S.S.S.S.S.S.S.",
"S.S.S.S.S.S.S.S.S.S.S.S.S.S.S.S.S.S.S.s.9.m.S.7. .L c r 8 : > > > > : 8 r j I X.4.m.m.S.s.S.S.S.S.S.S.S.S.S.S.S.S.S.S.S.S.S.S.S.",
"S.S.S.S.S.S.S.S.S.S.S.S.S.S.S.S.S.S.S.S.S.S.s.S.S.S.s.<.-.+.` ^ _ ) X.*.4.s.S.S.S.s.m.S.S.S.S.S.S.S.S.S.S.S.S.S.S.S.S.S.S.S.S.S.",
"S.S.S.S.S.S.S.S.S.S.S.S.S.S.S.S.S.S.S.S.S.S.S.S.S.s.s.S.S.S.S.m.S.S.m.S.S.S.s.s.S.S.S.S.S.S.S.S.S.S.S.S.S.S.S.S.S.S.S.S.S.S.S.S.",
"S.S.S.S.S.S.S.S.S.S.S.S.S.S.S.S.S.S.S.S.S.S.S.S.S.S.S.g.r.s.s.g.s.s.s.S.s.S.S.S.S.S.S.S.S.S.S.S.S.S.S.S.S.S.S.S.S.S.S.S.S.S.S.S.",
"S.S.S.S.S.S.S.S.S.S.S.S.S.S.S.S.S.S.S.S.S.S.S.S.S.S.S.S.S.S.S.S.S.S.S.S.S.S.S.S.S.S.S.S.S.S.S.S.S.S.S.S.S.S.S.S.S.S.S.S.S.S.S.S.",
"S.S.S.S.S.S.S.S.S.S.S.S.S.S.S.S.S.S.S.S.S.S.S.S.S.S.S.S.S.S.S.S.S.S.S.S.S.S.S.S.S.S.S.S.S.S.S.S.S.S.S.S.S.S.S.S.S.S.S.S.S.S.S.S.",
"S.S.S.S.S.S.S.S.S.S.S.S.S.S.S.S.S.S.S.S.S.S.S.S.S.S.S.S.S.S.S.S.S.S.S.S.S.S.S.S.S.S.S.S.S.S.S.S.S.S.S.S.S.S.S.S.S.S.S.S.S.S.S.S.",
"S.S.S.S.S.S.S.S.S.S.S.S.S.S.S.S.S.S.S.S.S.S.S.S.S.S.S.S.S.S.S.S.S.S.S.S.S.S.S.S.S.S.S.S.S.S.S.S.S.S.S.S.S.S.S.S.S.S.S.S.S.S.S.S."
};
