/* XPM */
static char *_912b1cc90224f8fe78c6647cc1ad874sBeVrYB7JHLxOZSx[] = {
/* columns rows colors chars-per-pixel */
"30 30 252 2 ",
"   c #FFFFFFFF",
".  c #FFFFFE",
"X  c #FFFFFC",
"o  c #FFFFFD",
"O  c #FEFFFF",
"+  c #FEFEFC",
"@  c #FEFCF3",
"#  c #FDFDF3",
"$  c #FCFAE2",
"%  c #F9EFA1",
"&  c #F9E76E",
"*  c #F8E350",
"=  c #F8E242",
"-  c #F9E34F",
";  c #F9E76D",
":  c #FBF9E1",
">  c #FCFBE6",
",  c #F9E87B",
"<  c #F8DF30",
"1  c #F9DD1A",
"2  c #F8D91B",
"3  c #F8D320",
"4  c #F9D021",
"5  c #F8D021",
"6  c #F9D31F",
"7  c #F9D91B",
"8  c #F8DD1A",
"9  c #F8DF2E",
"0  c #F8E879",
"q  c #FCFAE4",
"w  c #FFFEFC",
"e  c #FBF2B5",
"r  c #F7DE34",
"t  c #F8DD19",
"y  c #F8D125",
"u  c #F8BD28",
"i  c #F7AD27",
"p  c #F8A625",
"a  c #F8A424",
"s  c #F8A425",
"d  c #F7AD25",
"f  c #F8BC29",
"g  c #F9D126",
"h  c #F8DE19",
"j  c #F7DE32",
"k  c #FAF1B3",
"l  c #F9EE9E",
"z  c #F8DB1D",
"x  c #F9DA24",
"c  c #F7BB29",
"v  c #F7A423",
"b  c #F8A123",
"n  c #F8A323",
"m  c #F8A523",
"M  c #F8A623",
"N  c #F8A422",
"B  c #F8A121",
"V  c #F7A424",
"C  c #F8BB29",
"Z  c #F8DA23",
"A  c #F8DB1B",
"S  c #F9ED9D",
"D  c #F9F1AE",
"F  c #F9D729",
"G  c #F7AE25",
"H  c #F8A022",
"J  c #F8A223",
"K  c #F9A022",
"L  c #F8D729",
"P  c #F7DB1B",
"I  c #F9F1AC",
"U  c #FBF9DE",
"Y  c #F8DD2D",
"T  c #F9D925",
"R  c #F7AD24",
"E  c #F8A222",
"W  c #F8A723",
"Q  c #F7A523",
"!  c #F7C227",
"~  c #F8C125",
"^  c #F7A221",
"/  c #F7DD2B",
"(  c #FBF9DB",
")  c #F8E66B",
"_  c #F9DC1A",
"`  c #F8B828",
"'  c #F8A122",
"]  c #F8A224",
"[  c #F7AA24",
"{  c #F8DA29",
"}  c #F8DB29",
"|  c #F7B723",
" . c #F8AD24",
".. c #F8A524",
"X. c #F8B928",
"o. c #F8DD1C",
"O. c #F8E569",
"+. c #FBF7D4",
"@. c #F7DE27",
"#. c #F9CF28",
"$. c #F7A323",
"%. c #F7B825",
"&. c #F8D927",
"*. c #F9DE27",
"=. c #F8E027",
"-. c #F8E429",
";. c #FADC28",
":. c #F7AC24",
">. c #F9CE28",
",. c #F8DE26",
"<. c #FCF6D4",
"1. c #F9EB8D",
"2. c #F9DD19",
"3. c #F7AF23",
"4. c #F9DD28",
"5. c #F8DF28",
"6. c #F8D026",
"7. c #F7C325",
"8. c #F7CA26",
"9. c #F8CC27",
"0. c #F8A522",
"q. c #FAEB8D",
"w. c #F7E55A",
"e. c #F9D71D",
"r. c #F7AA26",
"t. c #F8A423",
"y. c #F8BD25",
"u. c #FAE029",
"i. c #F8D828",
"p. c #F7A623",
"a. c #F89D22",
"s. c #F9D71E",
"d. c #F8E55B",
"f. c #FDFFFF",
"g. c #FDFCF0",
"h. c #F7E23E",
"j. c #F7B824",
"k. c #F9E129",
"l. c #F9DB27",
"z. c #F8C927",
"x. c #F7AF24",
"c. c #F8D022",
"v. c #F8E13F",
"b. c #FDFBEF",
"n. c #FDFAE7",
"m. c #F7E133",
"M. c #F7CC23",
"N. c #F7A522",
"B. c #F7CC26",
"V. c #F8E129",
"C. c #F9DC29",
"Z. c #F9CE27",
"A. c #F8AF23",
"S. c #F8A322",
"D. c #F8CC24",
"F. c #F8E034",
"G. c #F8E132",
"H. c #F8CC23",
"J. c #F9D328",
"K. c #F9DE28",
"L. c #F9E128",
"P. c #F9DB28",
"I. c #F7AE24",
"U. c #F7A224",
"Y. c #F7D021",
"T. c #F7B625",
"R. c #F9D728",
"E. c #F8C526",
"W. c #F9D022",
"Q. c #F8E13E",
"!. c #F8E45B",
"~. c #F7A926",
"^. c #F8A622",
"/. c #F7A823",
"(. c #F79F23",
"). c #F8CF27",
"_. c #F8C826",
"`. c #F7AA25",
"'. c #F8D71E",
"]. c #F8E45A",
"[. c #F9EC8D",
"{. c #F9DC1B",
"}. c #F8B728",
"|. c #F7B525",
" X c #F8C825",
".X c #F8C326",
"XX c #F8CE26",
"oX c #F9DD29",
"OX c #F7B726",
"+X c #F7B828",
"@X c #F9CF27",
"#X c #F7A324",
"$X c #F7BE26",
"%X c #F9E229",
"&X c #F9E028",
"*X c #F8DB27",
"=X c #F8BE24",
"-X c #F8CF28",
";X c #F7DE26",
":X c #F7E66A",
">X c #F8DD1B",
",X c #F8B829",
"<X c #F9AE23",
"1X c #F7B725",
"2X c #F9DC28",
"3X c #F6AC23",
"4X c #F7A123",
"5X c #F8B929",
"6X c #F9DD1B",
"7X c #FCF9DE",
"8X c #F8AC25",
"9X c #F8A221",
"0X c #F8C127",
"qX c #F7AD26",
"wX c #F8D926",
"eX c #FBF9DC",
"rX c #FAF1AE",
"tX c #F8DC1B",
"yX c #F6AE25",
"uX c #F7A622",
"iX c #F7AE26",
"pX c #F9EE9F",
"aX c #F8DB1C",
"sX c #F9DA25",
"dX c #F7BC2A",
"fX c #F8DA24",
"gX c #F7DC1B",
"hX c #FFFEFB",
"jX c #F9F2B4",
"kX c #F8DE32",
"lX c #F8D225",
"zX c #F8AD27",
"xX c #F7A624",
"cX c #F8D126",
"vX c #F9DD18",
"bX c #F8DD33",
"nX c #FCFAE6",
"mX c #F8DE1B",
"MX c #F9D91A",
"NX c #F9D020",
"BX c #F8DE1A",
"VX c #F9E879",
"CX c #FCFAE5",
"ZX c #FCFAE3",
"AX c #FAEFA3",
"SX c #F9E44F",
"DX c #F8E243",
"FX c #F8E44F",
"GX c #FAE76F",
"HX c #FAEFA2",
"JX c #FDFEFB",
"KX c #FDFCF3",
/* pixels */
"                          . . . .                           ",
"                    . X o         o X .                     ",
"                . X     O + @ # + O     X .                 ",
"              X   O $ % & * = = - ; % :     X               ",
"            X   > , < 1 2 3 4 5 6 7 8 9 0 q   o             ",
"          w O e r t y u i p a s p d f g h j k O o           ",
"        X O l z x c v b n m M M m N B V C Z A S   X         ",
"      w   D A F G H m M m m J J M M M M K G L P I O w       ",
"    o   U Y T R E W m m M Q ! ~ J n m m M ^ R T / (   o     ",
"    o   ) _ ` ' M m m m ] [ { } |  ...m m M B X.o.O.O o     ",
"  o   +.@.#.$.M m m M J %.&.*.=.-.;.:.n m m M $.>.,.<.  o   ",
"  X   1.2.` E M m m n 3.4.5.6.7.8.9.0.m m m M J ` 1 q.  w   ",
"  . O w.e.r.t.m m M b y.u.i.p.a.$.p.m m m m m t.[ s.d.f..   ",
".   g.h.5 V m m m M E j.k.l.z.x.N n M m m m m m N c.v.b.  . ",
".   n.m.M.J M m m m 0.N.B.V.k.C.Z.A.S.M m m m M ] D.F.n.  . ",
".   n.G.H.J M m m m m t.0.y.J.K.L.P.I.n M m m m U.D.F.n.  . ",
".   g.h.Y.v m m m m m m m J 0.T.R.k.E.' M m m m t.W.Q.b.  . ",
"  . O !.e.~.t.m m m m ^./.n ' (.).k._.b M m m t.`.'.].O .   ",
"  X   [.{.}.J M m M J |.&. X.XXXoXk.OXJ M m M J +X{.q.  w   ",
"  o   +.@.@X#Xm m M b $Xk.%X&XK.*X=Xn m m m M n -X;X+.  o   ",
"    o   :X>X,XH W m m M <X1X2XP.3Xb m m m M 4X5X6X:X  o     ",
"    o   7XY T 8X9XW m m S.E 0X0XN M m m M J qXwX/ eX  o     ",
"      X   rXtXR.yXH ..M M uXJ E M m M m ' iXR.P I   X       ",
"        X O pXaXsXdXv ' n m M M m n ' t.C fXgXl   hX        ",
"          o   jXkXt lXf zXp a s xXzXf cXvXbXk   o .         ",
"            w   nX, < mXMX6 NX4 6 7 BX9 VXCX  X             ",
"              X   O ZXAX; SXDXDXFXGXHX$ O   X               ",
"                . X       JXKXKXJX      X .                 ",
"                    . X X         X X .                     ",
"                            . .                             "
};
