/* XPM */
static char *fba2e5dbd0484bbd9966ac2b0b5501d98g9ASGWTEaZnzISP[] = {
/* columns rows colors chars-per-pixel */
"64 64 219 2 ",
"   c #2F252F",
".  c #2E2935",
"X  c #2F2836",
"o  c #312733",
"O  c #322A34",
"+  c #392D35",
"@  c #3D3234",
"#  c #3B343B",
"$  c #3C393D",
"%  c #423335",
"&  c #45373A",
"*  c #3D3642",
"=  c #3E3944",
"-  c #3F3949",
";  c #413A44",
":  c #443C48",
">  c #454146",
",  c #484447",
"<  c #4A434C",
"1  c #5D4D44",
"2  c #55494A",
"3  c #4D4651",
"4  c #4E4B54",
"5  c #574E55",
"6  c #4F5251",
"7  c #5C5256",
"8  c #565C56",
"9  c #5C5B56",
"0  c #565259",
"q  c #5B545B",
"w  c #5D5B5D",
"e  c #634D45",
"r  c #645349",
"t  c #635658",
"y  c #625A5C",
"u  c #725C53",
"i  c #576157",
"p  c #5C625A",
"a  c #63635E",
"s  c #63695F",
"d  c #5D5762",
"f  c #5E5B62",
"g  c #625C62",
"h  c #645F69",
"j  c #5C6064",
"k  c #646564",
"l  c #6B6665",
"z  c #666A65",
"x  c #6A6C65",
"c  c #66636A",
"v  c #6A666C",
"b  c #666C6A",
"n  c #6B6B6B",
"m  c #786C65",
"M  c #736F69",
"N  c #6F7166",
"B  c #6D726C",
"V  c #727267",
"C  c #72736B",
"Z  c #78786E",
"A  c #6D6A71",
"S  c #726D73",
"D  c #6F7372",
"F  c #727473",
"G  c #747A74",
"H  c #797876",
"J  c #7A7D75",
"K  c #757379",
"L  c #7C7D7B",
"P  c #89735E",
"I  c #8F715E",
"U  c #8A7667",
"Y  c #937561",
"T  c #957965",
"R  c #967C68",
"E  c #837A77",
"W  c #8C7C73",
"Q  c #907F76",
"!  c #7C8177",
"~  c #7D837B",
"^  c #7F897E",
"/  c #96816B",
"(  c #888475",
")  c #8A8475",
"_  c #83857D",
"`  c #84897D",
"'  c #8D8A7A",
"]  c #94847A",
"[  c #97887A",
"{  c #9A897E",
"}  c #A3886D",
"|  c #AA8C74",
" . c #B18F74",
".. c #AC9174",
"X. c #AB947C",
"o. c #AA957D",
"O. c #B3967A",
"+. c #B4957A",
"@. c #7D7A81",
"#. c #827E83",
"$. c #7D8281",
"%. c #848483",
"&. c #878786",
"*. c #868B83",
"=. c #8A8D85",
"-. c #858288",
";. c #8B8D8A",
":. c #879185",
">. c #8A9186",
",. c #8D948A",
"<. c #8E988C",
"1. c #969588",
"2. c #91958D",
"3. c #92998E",
"4. c #8E8C92",
"5. c #939693",
"6. c #959B92",
"7. c #9A9D94",
"8. c #979898",
"9. c #9B9E9A",
"0. c #A28B82",
"q. c #AE9B83",
"w. c #AA9886",
"e. c #B49C83",
"r. c #B49D89",
"t. c #A19E9C",
"y. c #9BA296",
"u. c #9DA49A",
"i. c #9FA89B",
"p. c #ADA38E",
"a. c #ACA98D",
"s. c #B3A486",
"d. c #B2A489",
"f. c #BAA78B",
"g. c #A8A696",
"h. c #A1A59C",
"j. c #A3AA9D",
"k. c #B7AB95",
"l. c #A7B19E",
"z. c #B8B39B",
"x. c #A19FA0",
"c. c #9FA5A1",
"v. c #A3A5A1",
"b. c #A5ACA2",
"n. c #AAAEA3",
"m. c #ACADA9",
"M. c #B2AEA6",
"N. c #ABB2A5",
"B. c #A9B4A4",
"V. c #ADB4A9",
"C. c #AEB9AA",
"Z. c #B2B3A4",
"A. c #B2B5AA",
"S. c #B3BBAC",
"D. c #B8BBAB",
"F. c #B6B5B2",
"G. c #B5BDB1",
"H. c #BABEB2",
"J. c #C6A588",
"K. c #C6A68A",
"L. c #CBAA8D",
"P. c #D1AB8E",
"I. c #C2AB95",
"U. c #CBAD92",
"Y. c #C4AC9A",
"T. c #D7AF91",
"R. c #CDB296",
"E. c #C4B39A",
"W. c #C7B79B",
"Q. c #CBB59B",
"!. c #D2B296",
"~. c #DBB395",
"^. c #DFB895",
"/. c #D2B49A",
"(. c #DAB79A",
"). c #D3B99C",
"_. c #DCBA9D",
"`. c #E0B798",
"'. c #E2BB9C",
"]. c #C6BAA4",
"[. c #D4BDA2",
"{. c #DABDA3",
"}. c #E1BFA3",
"|. c #B9C1AE",
" X c #B6C1B1",
".X c #BBC3B4",
"XX c #BEC8B7",
"oX c #BEC6B9",
"OX c #BEC9B9",
"+X c #BFD0BC",
"@X c #D2C39F",
"#X c #CDC4A6",
"$X c #DCC3A6",
"%X c #DCC5A9",
"&X c #D8C9AA",
"*X c #C1C4B6",
"=X c #C1C9B7",
"-X c #C1C6BB",
";X c #C2CCBB",
":X c #CACBBA",
">X c #D6CBB6",
",X c #C5D1BE",
"<X c #CAD2BF",
"1X c #D2D1BC",
"2X c #E4C3A3",
"3X c #E5CBAB",
"4X c #E6CAAC",
"5X c #E4D4AC",
"6X c #E8CFB0",
"7X c #C5CDC1",
"8X c #C9CEC2",
"9X c #C7D1C1",
"0X c #CBD4C4",
"qX c #CDD9C5",
"wX c #CED6C9",
"eX c #CFD9C8",
"rX c #D0D7C5",
"tX c #D1DBCB",
"yX c #D6DED1",
/* pixels */
"(._.{.}.}.}.{.(.!.!.!.T.!.(.{.{.{.(._._.{.{.%X{.[.I.f.e.e.w.+.e.K.R.{.2X4X4X4X4X3X6X6X3X%X$X[.).R.U.f.f.s.s.K.f.U.!.(.{.}.>X>XqX",
"R.R./././.!.!.U.U.L.U.U.U./././.).).).[.[.{.[./.E.I.e.e.| X.| e.f.R.[.$X3X$X$X3X%X2X%X$X{.[.@X).W.E.f.f.s.f.f.U.R.!.(.{.{.8X>X>X",
"r.r.r.f.r.w.r.w.w.w.w.r.K.L.I.I.I.I.I.I.Y.Y.k.I.r.w.| [ R R R 0.r.I.Y.Y.Q.Q.E.Y.E.z.E.f.k.Q.W.#X@Xf.f.a.d.a.k.Y.E.Y.Y.Y.Y.].{.{.",
"Q W W W W E U U U W W Q #.#.| #.{ { { { [ [ { ] Q E U P m m U W W Q ] 0.{ { [ [ { [ [ ( [ 1.a.z.z.z.z.a.k.k.k.k.p.w.0.0.0.r.M.].",
"t 7 q 7 7 7 5 7 7 7 7 t t t t u y t t y t t u t g t t 5 5 2 5 t t y t y t t t y w 9 7 9 a E 1.l.z.z.z.l.z.z.M.k.0.E l r u U 0.K.",
"* ; * * * * * ; * = = = : : : : = ; ; & ; ; ; ; ; : : : ; : : : ; : & $ $ $ $ $ $ $ # $ , a ` h.B.B.N.z.Z.Z.M.t.#.u : o ; e T 0.",
"< , , , < < < < : 3 < < 3 < 3 < < < 3 : < < : 3 2 : 5 : 3 3 3 : < < < : > > > , > > > > 6 N *.j.z.z.B.B.Z.A.Z.t.#.d *   + e R e.",
"7 7 q w w q q q q 0 0 0 0 0 0 0 q q 5 7 7 7 5 7 7 t d d q q q 0 q q w y y y g g j w w 8 s ! <.b. Xl.B.z.Z.Z.Z.t.#.d * o % e R e.",
"g h c A S S v v h g f w g g k f g g g g g g y g g g c g g g g w y k M H E _ %._ E L H G @.,.c.C.D.Z.N.z.M.A.A.9.#.h ; o % t T e.",
"g h @.@.#.E K A h g g f f f k f g g f g g g g y y w y g y k p 9 p k Z ` 1.h.t.h.9.6.,.*.:.y.B. X.XS.N.M.Z.A.M.t.#.h : o % r R e.",
"h A @.@.#.#.S A h g g g f g f f g w g g g y y w t 9 w w w a p 9 t s J ;.h.M.Z.m.m.j.u.2.<.c.C.XX*XD.Z.l.n.Z.M.x.#.d : o % r R e.",
"h A K @.@.K A h g g g q d w g f f f q d y g y y y w y a f 9 9 9 p s J 1.j.Z.A.Z.N.l.h.3.<.c.C.XXOX.XZ.l.Z.Z.A.t.#.h : o % r R e.",
"h v S K S v h g g q g q y g g q g q g y y w w y c n n n n l a a a s ! 6.n.D.A.Z.n.g.y.1.,.i.C.OXOX XN.l.Z.Z.M.t.%.f =   % r / +.",
"h h v v v h g g y y y y q y y g q g g w w w k n F E %.%.E H C x s Z ' h.A.D.A.N.m.g.y.1.<.i. XOXOX XN.N.Z.Z.Z.t.%.w $   % e / s.",
"g g h h h g g d y d w w w q q w y w w y w w a Z =.8.x.t.8.4.*.E ( _ 6.n.H.H.F.V.n.h.y.<.3.j.C.XX=X*XD.N.S.D.Z.t.%.q $ . @ r / +.",
"g g g g g g y y g y y w q q w q w w w w 9 8 k F ,.v.m.m.m.h.8.;.=.1.g.Z.].oXH.N.B.j.y.2.3.i.Z.=X,X=X=X|.].].D.h.%.f $ . @ r / O.",
"d g f f j f f h y f w w w w g g w g f p w p z J 1.l.A.A.A.m.t.8.2.1.h.A.*X=XS.Z.l.g.y.<.<.y.C.+X<X<X=X=X:X*X].v.-.y * O $ e T X.",
"d g f f f j f f f w w g g c n n l c k j k s N _ t.l.A.A.M.m.n.7.1.1.h.A.*X;XS.N.l.l.y.<.<.y.|.,X<XqXqX1XrX:X*Xv.#.f : O % e T ..",
"d f f f j f f j w d w k S H @.L H K D D B N ! ,.j.A.D.D.A.Z.n.h.6.1.h.A.oX*XS.N.l.l.y.<.<.y.C.,XqXqXqXqXwX8X*Xv.#.d : O @ e I ..",
"f f f j i w i w w 8 w k H =.6.8.,.*.~ G G ! ` y.Z.D.H.D.A.m.n.y.3.2.u.A.=X-X XS.B.l.y.<.<.y.B.+XqXqXqXqXwXwX].h.%.d - O @ 1 Y ..",
"j i i i i i i i 8 8 8 a ! 6.b.B.l.y.:.^ ! ~ >.i.S.XX=X|.Z.N.j.y.3.<.y.Z.OX9XOX.XS.B.h.3.,.y.C.+XqXqXqXqX1X<X|.j.$.f > . @ 1 P ..",
"j i i i i i p p w 8 8 z ` u.S. XC.i.<.:.~ ^ >.y.S.=X=X|.N.N.l.u.6.<.y.C.OX0X9X;X.XB.u.3.<.u.C.+X<XqX<X<X<X,X|.i.$.w = . @ 1 P ..",
"j j i s s s b z z k k C =.j.H.oX Xi.3.` ` ! :.y.S.XX=X|.Z.C.b.u.6.<.y.C.;XqXqX,XXXN.u.3.<.u.C.+X<X,X,X,X=X+X|.g.$.f = . @ 1 / ..",
"j j z B ! D G G F F F L 6.N.XXOX XB.6.:.^ ^ :.y.S.=X=X|.S.N.n.u.6.<.y.C.;XeXeX9XoXV.u.<.<.i.S.+X,X,X|.|.|.|.C.i.$.f $ . @ 1 P ..",
"j b D ! ^ ^ ! ^ ! L ~ *.y.Z.XX;XOXC.i.<.>.` >.y.|.XX=XXX|.C.B.y.<.<.y. X+XqXqXqXoXV.u.<.,.i. XOX,XXX X XG. XF.c.-.f = . @ e T O.",
"b B ! :.<.:.` $.^ ~ _ =.h.A.=X7X+X XB.i.3.` >.y.l.+X<X=X.X XB.y.<.:.3. X+XqXqX,X.XV.u.2.,.i.S.OX,X,X.X X X.XG.c.$.f - O @ e T O.",
"z B $.y.y.3.:.*.%.E _ =.7.Z.OX0XqX+X Xb.y.>.` y.S.=X<X<X;X.XZ.u.3.<.y.B.+X0X0X,X.XV.i.3.,.i.C.;X<X<X9X:X;XOXH.v.-.f - O % r T +.",
"z G <.i.B.i.6.:._ _ _ ' y.Z.;X0XeX+XOXC.i.<.<.y.S.,X<X<X:X.XS.u.<.<.y. XOX0XOXXXS.B.u.,.<.c.C.9X0XqX0X0X0X;XH.v.$.f - X & r R +.",
"z G 6.V. XB.u.<.*._ _ ` g.N.;X0XqX+XoXC.c.<.3.y.z.+X<X<X:XXXS.u.<.<.y.C.OX,XXX XS.b.y.<.6.i.S.,XqXeXqXqXwX8X].v.$.f : O % e T +.",
"b G y.S.OXS.b.6.=._ ` ` y.Z.=X0X7X+X XV.i.<.3.y.C.XX<X<X=X|.N.u.<.<.y.C.OX;XXX XC.b.y.,.<.c. X0XqXtXrXrXwX8X7Xm.4.f : X % e T  .",
"c J u. X;X XB.y.>._ ~ =.y.C.=X;X+XoXC.B.u.<.<.y.C.XX,X=X.XS.B.u.3.<.y.C.XX,XOXXXG.b.y.<.<.b. XqXtXrXrXwXwXwX7XF.4.h : . @ e T +.",
"b J u. X,XXXC.y.>.^ ! ` y.Z.XX,XOX XC.b.u.<.3.y.C.|.=X=XD.S.N.u.<.<.y.C.OX0X0X;X Xb.y.<.<.i. XqXtXqX0X<X8X8X8XF.8.c : . @ e / +.",
"l J y.|.9X;XG.i.<.` ! ` y.V.;X0X,XXXS.B.i.,.,.y.N..X;X;XH.S.B.y.<.<.i.C.9XeXeX9XoXV.y.>.,.y.|.XX+X+X+XXX:X:X:XF.8.h - X X 1 U X.",
"k H h..XqX9XoXm.3.` ! ` y.V.=X9X9X;X.XV.i.<.,.y.A.;X8X:X=X.XN.u.<.<.i.C.9XeXeX0XOXA.h.6.<.3.y.|.|.|.|.|.|.*X].m.4.h * . # 2 U ..",
"k J h..XeXwX7XC.i.>.` ` 7.N.OX9XqX,X.XV.u.,.,.y.S.;XwXwX8X*XS.u.6.3.i. XwXtXeXwX;XG.B.u.<.6.y.l.l.l.l.l.Z.Z.M.t.#.d - . + 1 P } ",
"k J u..XeXtXwX.XB.3.:.:.y.N.OX0XwX,XXXS.h.,.,.y.V.;XwXwX7XOXC.u.<.<.l.XXwXyXtXwX8X7XG.B.i.i.i.j.l.l.l.l.M.Z.M.t.#.h - * # 1 P } ",
"a J h.|.wXtXqXoXN.u.<.>.6.B.OXqXqX9XXXA.u.5.,.7.V.oX8X8X-XG.V.y.<.,.j.G.9XwX7XoXXXH.F.B.j.i.j.j.l.l.l.N.z.N.M.t.#.f - O # 1 P } ",
"s E h..XeXeX9XoXS.h.3.,.y.B.OXqXqX9XXXV.u.2.,.7.V.oX7XoXG.C.n.9.<.,.y.V..XoXC.m.B.j.b.i.y.y.i.l.l.l.N.l.N.Z.M.t.#.f - . + 1 P } ",
"s ! h.|.qX0X7XXXV.h.3.1.y.V.OX0XqX;X.XA.u.5.,.u.F.-X8X7X.XG.C.c.6.<.6.h.b.V.c.y.6.6.y.6.y.y.j.j.B.l.Z.N.N.Z.M.t.-.h - . # 1 P ..",
"x ! u.|.9X7XOXH.B.y.3.<.u.V.oX7X;X;XS.V.u.5.5.u.G.7XwX8XoX.XH.b.y.2.3.u.i.i.u.6.3.3.<.<.6.y.h.n.B.N.B.N.Z.Z.A.x.#.d - o @ 1 I ..",
"x J y.|.,X;XXXS.b.u.<.,.u.m..XOXOX.XS.n.u.,.5.u.F.9XwXwX7X-X XV.y.2.2.6.y.u.u.y.7.y.7.y.7.u.h.v.b.b.b.n.m.M.M.x.#.h ; o + e T  .",
"x ! u. X=XXX.XC.m.u.<.<.y.m. XoXXXS.N.j.7.5.2.u.G.;X9X7X-XoX Xm.y.<.,.3.y.u.i.u.h.h.u.u.u.9.h.h.h.c.v.h.h.m.v.8.@.d * o % e Y e.",
"z ! i.|.;X;XOXG.B.u.6.,.y.B.oX+X;X.XZ.n.u.5.,.6.v.V.A.C.m.V.b.u.3.:.=.>.5.6.7.7.7.7.7.6.6.6.6.8.8.6.8.6.7.u.9.;.K 0 - o % e R e.",
"s ! y.|.qXqX,X.XC.j.6.<.u.C.OXwXqX<XXXS.b.u.,.;.,.2.6.6.8.5.5.<.>.*.*.=.:.,.:.>.:.:.*.:.,.,.;.2.2.;.,.;.2.2.2.-.S 4 * o % e T O.",
"z J u..XwXrX0XOXC.v.6.3.v.G.wXyXyXyX8XoXG.m.u.;.=.*.:.>.<.5.6.3.<.5.2.,.2.2.<.=.:.*.*.>.<.2.2.2.2.2.2.2.7.7.8.;.@.5 ; o % e R +.",
"k J 9..XwXqX0XOXS.i.<.<.v..XwXyXyXwX8X7X.XV.c.<.` ` >.<.6.7.y.u.u.u.u.u.u.u.y.6.,.:.:.<.7.u.h.h.h.7.y.h.c.c.v.5.@.d ; o % e Y +.",
"z H 9. XwXrX0XOXC.i.<.,.u.C.OX8X7XoX.XG.V.m.u.,.=.:.3.y.j.N.b.n.b.B.n.B.B.n.j.u.6.<.,.3.h.n.N.N.m.n.n.n.m.F.m.x.#.d : o % e Y  .",
"z L u..XwXwX0XXXC.c.6.:.5.u.c.m.m.v.c.c.c.u.5.:.=.=.3.h.B.N.V.V.B.N.B.m.V.N.b.h.6.<.1.y.j.B.Z.Z.N.V.N.V.m.F.m.x.#.d : o % e R R ",
"b G c.oXyXeXwXOXG.V.y.<.,.,.<.5.5.6.5.6.5.<.,.$.:.;.<.u.j.n.v.b.b.b.v.j.b.j.h.y.2.<.,.3.g.h.n.g.n.j.j.n.b.m.b.8.@.f - . # 1 U  .",
"b $.c.7XyXyXeX0XoXG.B.y.,.$.$.*.,.<.5.6.5.5.4.;.:.:.;.<.6.8.y.7.6.7.7.8.7.8.5.2.,.=.=.,.2.6.7.t.7.7.y.7.u.u.y.4.K 0 * . @ e I  .",
"b $.c.7XyXeXqX7XOX.XC.c.<.:.:.;.<.8.9.u.c.9.8.<.;.*.*.*.=.;.;.=.>.,.;.;.<.,.=.;.=.=.=.,.>.,.1.;.;.>.=.,.>.,.4.$.D 4 * . % e I  .",
"b @.c.G.oXoX.X XS.V.m.i.6.,.;.,.5.8.u.h.c.c.8.<.=.*.*.$._ ` ` ` %.*.=.=.2.2.2.2.2.2.2.2.2.=.=.%.*._ _ *.*.;.*.L b 4 * X % e Y } ",
"b D $.6.i.c.u.y.y.y.7.2.,.;.;.;.,.5.5.8.6.5.2.1.*.` ' _ _ _ _ _ _ ` =.1.7.9.7.h.7.u.7.7.6.1.=.&._ _ $.>.*.*.*.L l < * o % e Y  .",
"b b ! $.$.<.<.>.=.>.*.=.;.*.$.;.;.,.;.;.;.;.;.*.*.' _ *.' *.` ` ` *.1.8.u.v.h.v.h.h.h.h.t.8.1.%.*.-.$.*.&.;.&.@.v 5 * + % e Y  .",
"b b b G $.$.$.` _ _ _ _ -.&.&.*.*.-.%.-.-.%.%.*.%.*.%._ %.%.*.%.%.*.;.1.7.7.9.9.7.u.7.u.6.2.4.%.%.-.*.&.;.4.&.@.A 4 : + & e Y +.",
"j b b ! $.$.^ ! J J J J ~ ~ $.@.@.E @.E L @.L L ~ E ~ _ _ ~ _ _ _ _ %.*.&.&.*.*.*.&.%.*.&.%._ _ #.E $.$.$.$.$.K c 4 & % & e T +.",
"b b b b n B C M B C V C Z C B D D F C B D D F F F F F C F F F F C F C F F F F F F D D G G D F F F D D D F G F S c 0 : = & e R +.",
"^ ! B b b b n n x l x x l x x x x x b B b z n l c z z c z l z z k l z c c z k z k k b f c b c l c b b z b x l l f d 4 : : e Y  .",
"y.<.=.! G Z Z C Z C Z V V C N N V N N N x l z s a a a a a k s a k a a a a a a a a a a k f k k k k a k k k a l l l h t 2 & e Y  .",
"Z.N.j.w.1.>.' =.' ' ' ' ' ' ' ` ` ' ` ` ( J Z C C V N V C V N N x V V N V V V C C C C C B C C x M V N V M V C m F M l t u P T  .",
":X>X#XD.Z.k.p.p.p.p.p.p.p.p.p.p.a.p.p.a.a.3.o.' ' ' ' ' ' ' ' ( ( ' ( ( ( ' ' ' ' ' ' ' ' ( ( ( ( W ( ( W W ] Q Q Q R I I I R +.",
"&X&X%X%X%X[./.Q.R.R.R.Q.Q./.Q.Q.W.W.].].z.z.z.a.a.a.a.a.s.s.s.s.o.o.q.s.s.e.s.d.s.s.p.s.d.q.q.X.X.X.X.X.0.w.q.q.e.w.| R R } +.K.",
"2X2X2X2X}.}.(._./.~.~.(.(.(.{._.@X2X$X@X&X&X&X&X@X@X@X@X).!.!.R.R.L.L.L.!.!.).).)./.R.R./.R.L.L.J.J.f.K.L.L.L.P.P.J.J.J.J.K.P.T.",
"^.`.'.'.'.}.'.~.~.~.`.`.'.'.'.'.'.2X2X5X5X5X5X5X5X5X5X5X3X2X'.`.^.^.^.`.'.2X3X2X3X2X2X2X'.'.~.~.T.T.!.~.~.~.~.~.~.T.T.T.T.~.T.T."
};
