/* XPM */
static char *result[] = {
/* columns rows colors chars-per-pixel */
"63 64 16 1 ",
"  c black",
". c gray19",
"X c #204228",
"o c #385038",
"O c #504838",
"+ c #605040",
"@ c #883838",
"# c #987038",
"$ c #54BB4F",
"% c #44A05D",
"& c #D0B028",
"* c #F08848",
"= c #F8E870",
"- c #B3B7B8",
"; c #E8E8F8",
": c None",
/* pixels */
":::::::::::::::::::::::::::::::::::::::::::::::::::::::::::::::",
":::::::::::::::::::::::::::::::::::::::::::::::::::::::::::::::",
":::::::::::::::::::::::::::::::::::::::::::::::::::::::::::::::",
":::::::::::::::::::::::::::::::::::::::::::::::::::::::::::::::",
":::::::::::::::::::::::::::::::::::::::::::::::::::::::::::::::",
":::::::::::::::::::::::::::::::::::::::::::::::::::::::::::::::",
":::::::::::::::::::::::::::::::::::::::::::::::::::::::::::::::",
":::::::::::::::::::::::::::::::::::::::::::::::::::::::::::::::",
":::::::::::::::::::::::::::::::::::::::::::::::::::::::::::::::",
":::::::::::::::::::::::::::::::::::::::::::::::::::::::::::::::",
":::::::::::::::::::::::::::::::::::::::::::::::::::::::::::::::",
":::::::::::::::::::::::::::::::::::::::::::::::::::::::::::::::",
"::::::::::::::::::::::::::::XXXXXXXX:::::::::::::::::::::::::::",
"::::::::::::::::::::::::::::XXXXXXXX:::::::::::::::::::::::::::",
"::::::::::::::::::::::::::XXXX%%%%XX:::::::::::::::::::::::::::",
"::::::::::::::::::::::::::XXXX%%%%XX:::::::::::::::::::::::::::",
"::::::::::::::::::::::::::XX%%XX      :::::::::::::::::::::::::",
"::::::::::::::::::::::::::XX%%XX      :::::::::::::::::::::::::",
"::::::::::::::::::::::::::::XXXX%%%%  :::::::::::::::::::::::::",
"::::::::::::::::::::::::::::XXXX%%%%  :::::::::::::::::::::::::",
"::::::::::::::::::::::::XXXXXX%%%%  ##++:::::::::::::::::::::::",
"::::::::::::::::::::::::XXXXXX%%%%  ##++:::::::::::::::::::::::",
"::::::::::::::::::::XXXX$$XX$$    ####++:::::::::::::::::::::::",
"::::::::::::::::::::XXXX$$XX$$    ####++:::::::::::::::::::::::",
"::::::::::::::::::XX$$$$$$$$$$$$XXXX++:::::::::::::::::::::::::",
"::::::::::::::::::XX$$$$$$$$$$$$XXXX++:::::::::::::::::::::::::",
"::::::::::::::::XX$$$$&&&&$$$$$$$$XX:::::::::::::::::::::::::::",
"::::::::::::::::XX$$$$&&&&$$$$$$$$XX:::::::::::::::::::::::::::",
"::::::::::::::XX&&$$======&&$$$$$$OOXX::::::::++++:::::::::::::",
"::::::::::::::XX&&$$======&&$$$$$$OOXX::::::::++++:::::::::::::",
"::::::::::::::XX====;;--====&&$$OO####OO::::  ####++:::::::::::",
"::::::::::::::XX====;;--====&&$$OO####OO::::  ####++:::::::::::",
"::::::::::::::XX@@==  ;;====&&$$OO####OO::  ######++:::::::::::",
"::::::::::::::XX@@==  ;;====&&$$OO####OO::  ######++:::::::::::",
"::::::::::::::@@****  ;;====&&$$OO##OOOO::OO##OO  :::::::::::::",
"::::::::::::::@@****  ;;====&&$$OO##OOOO::OO##OO  :::::::::::::",
"::::::::::::::@@****--====&&$$$$%%OOOOXX::OO##OO:::::::::::::::",
"::::::::::::::@@****--====&&$$$$%%OOOOXX::OO##OO:::::::::::::::",
"::::::::::::::::@@**%%&&&&$$$$%%  $$$$$$oo##OO:::::::::::::::::",
"::::::::::::::::@@**%%&&&&$$$$%%  $$$$$$oo##OO:::::::::::::::::",
"::::::::::::::::::  oo%%%%%%    %%$$%%$$%%..OO:::::::::::::::::",
"::::::::::::::::::  oo%%%%%%    %%$$%%$$%%..OO:::::::::::::::::",
"::::::::::::::::::::::      %%%%..%%%%%%..%%:::::::::::::::::::",
"::::::::::::::::::::::      %%%%..%%%%%%..%%:::::::::::::::::::",
"::::::::::::::::::::::::..@@@@........@@@@  :::::::::::::::::::",
"::::::::::::::::::::::::..@@@@........@@@@  :::::::::::::::::::",
"::::::::::::::::::::::::::    ::::::::    :::::::::::::::::::::",
"::::::::::::::::::::::::::    ::::::::    :::::::::::::::::::::",
":::::::::::::::::::::::::::::::::::::::::::::::::::::::::::::::",
":::::::::::::::::::::::::::::::::::::::::::::::::::::::::::::::",
":::::::::::::::::::::::::::::::::::::::::::::::::::::::::::::::",
":::::::::::::::::::::::::::::::::::::::::::::::::::::::::::::::",
":::::::::::::::::::::::::::::::::::::::::::::::::::::::::::::::",
":::::::::::::::::::::::::::::::::::::::::::::::::::::::::::::::",
":::::::::::::::::::::::::::::::::::::::::::::::::::::::::::::::",
":::::::::::::::::::::::::::::::::::::::::::::::::::::::::::::::",
":::::::::::::::::::::::::::::::::::::::::::::::::::::::::::::::",
":::::::::::::::::::::::::::::::::::::::::::::::::::::::::::::::",
":::::::::::::::::::::::::::::::::::::::::::::::::::::::::::::::",
":::::::::::::::::::::::::::::::::::::::::::::::::::::::::::::::",
":::::::::::::::::::::::::::::::::::::::::::::::::::::::::::::::",
":::::::::::::::::::::::::::::::::::::::::::::::::::::::::::::::",
":::::::::::::::::::::::::::::::::::::::::::::::::::::::::::::::",
":::::::::::::::::::::::::::::::::::::::::::::::::::::::::::::::"
};
